<?xml version="1.0" encoding="utf-8"?><svg xml:space="preserve" viewBox="0 0 100 100" y="0" x="0" xmlns="http://www.w3.org/2000/svg" id="Layer_1" version="1.1" width="47px" height="47px" xmlns:xlink="http://www.w3.org/1999/xlink" style="width:100%;height:100%;background-size:initial;background-repeat-y:initial;background-repeat-x:initial;background-position-y:initial;background-position-x:initial;background-origin:initial;background-color:initial;background-clip:initial;background-attachment:initial;animation-play-state:paused" ><g class="ldl-scale" style="transform-origin:50% 50%;transform:rotate(0deg) scale(0.8, 0.8);animation-play-state:paused" ><circle fill="#f47e5f" r="40" cy="50" cx="50" style="fill:rgb(244, 126, 95);animation-play-state:paused" ></circle>
<circle fill="#f7b26a" r="30" cy="50" cx="50" style="fill:rgb(247, 178, 106);animation-play-state:paused" ></circle>
<ellipse fill="#849b87" ry="4.3" rx="5.8" cy="39.9" cx="33.8" transform="rotate(-13.736 33.822 39.9)" style="fill:rgb(132, 155, 135);animation-play-state:paused" ></ellipse>
<ellipse fill="#849b87" ry="2.1" rx="2.9" cy="53.9" cx="61.8" transform="rotate(-42.215 61.817 53.906)" style="fill:rgb(132, 155, 135);animation-play-state:paused" ></ellipse>
<ellipse fill="#849b87" ry="2.7" rx="3.6" cy="45.1" cx="53.8" transform="rotate(-81.425 53.789 45.059)" style="fill:rgb(132, 155, 135);animation-play-state:paused" ></ellipse>
<ellipse fill="#849b87" ry="1.8" rx="2.4" cy="45.3" cx="70" transform="rotate(-57.894 69.97 45.283)" style="fill:rgb(132, 155, 135);animation-play-state:paused" ></ellipse>
<ellipse fill="#849b87" ry="2.3" rx="3.1" cy="30.3" cx="58.8" transform="rotate(-17.973 58.753 30.277)" style="fill:rgb(132, 155, 135);animation-play-state:paused" ></ellipse>
<ellipse fill="#849b87" ry="1.8" rx="2.4" cy="35.7" cx="66.8" transform="rotate(-49.428 66.778 35.687)" style="fill:rgb(132, 155, 135);animation-play-state:paused" ></ellipse>
<ellipse fill="#849b87" ry="1.9" rx="2.6" cy="50" cx="32.4" transform="rotate(-21.921 32.381 49.96)" style="fill:rgb(132, 155, 135);animation-play-state:paused" ></ellipse>
<ellipse fill="#849b87" ry="4" rx="2.9" cy="64.6" cx="49" transform="matrix(1 -.00692 .00692 1 -.446 .34)" style="fill:rgb(132, 155, 135);animation-play-state:paused" ></ellipse>
<ellipse fill="#849b87" ry="3.2" rx="4.4" cy="67.7" cx="64.4" transform="matrix(.00987 -1 1 .00987 -3.958 131.5)" style="fill:rgb(132, 155, 135);animation-play-state:paused" ></ellipse>
<ellipse fill="#849b87" ry="2.9" rx="2.1" cy="53.5" cx="43.6" transform="rotate(-62.29 43.565 53.482)" style="fill:rgb(132, 155, 135);animation-play-state:paused" ></ellipse>
<ellipse fill="#849b87" ry="1.8" rx="2.4" cy="64.8" cx="32.4" transform="rotate(-58.594 32.39 64.838)" style="fill:rgb(132, 155, 135);animation-play-state:paused" ></ellipse>
<ellipse fill="#849b87" ry="3.2" rx="4.4" cy="32.7" cx="49" transform="rotate(-72.59 48.999 32.686)" style="fill:rgb(132, 155, 135);animation-play-state:paused" ></ellipse>
<path fill="#e15c64" d="M53.9 33.4l7.3 12.4c2.5-1.9 3.1-5.8 1.2-9-1.9-3.3-5.6-4.7-8.5-3.4z" style="fill:rgb(225, 92, 100);animation-play-state:paused" ></path>
<path fill="#e15c64" d="M29.7 64.6l8.6-5.5c-1.4-1.7-4.2-2-6.4-.6-2.2 1.5-3.2 4.1-2.2 6.1z" style="fill:rgb(225, 92, 100);animation-play-state:paused" ></path>
<path fill="#e15c64" d="M71.4 53.8l-8.1 6.1c1.5 1.6 4.3 1.7 6.4.1 2.2-1.6 2.9-4.3 1.7-6.2z" style="fill:rgb(225, 92, 100);animation-play-state:paused" ></path>
<path fill="#e15c64" d="M37.5 69.7L50 76.3c1.1-2.9-.4-6.4-3.7-8.2-3.3-1.7-7.1-1-8.8 1.6z" style="fill:rgb(225, 92, 100);animation-play-state:paused" ></path>
<g style="animation-play-state:paused" ><path fill="#333" d="M38.3 35.7c-1.9 0-3.5-1.6-3.5-3.5s1.6-3.5 3.5-3.5 3.5 1.6 3.5 3.5-1.6 3.5-3.5 3.5zm0-5c-.8 0-1.5.7-1.5 1.5s.7 1.5 1.5 1.5 1.5-.7 1.5-1.5-.7-1.5-1.5-1.5z" style="fill:rgb(51, 51, 51);animation-play-state:paused" ></path></g>
<g style="animation-play-state:paused" ><path fill="#333" d="M58.8 63c-1.9 0-3.5-1.6-3.5-3.5s1.6-3.5 3.5-3.5 3.5 1.6 3.5 3.5-1.6 3.5-3.5 3.5zm0-5c-.8 0-1.5.7-1.5 1.5S58 61 58.8 61s1.5-.7 1.5-1.5-.7-1.5-1.5-1.5z" style="fill:rgb(51, 51, 51);animation-play-state:paused" ></path></g>
<g style="animation-play-state:paused" ><path fill="#333" d="M36.5 54.5c-1.9 0-3.5-1.6-3.5-3.5s1.6-3.5 3.5-3.5S40 49 40 51s-1.5 3.5-3.5 3.5zm0-5c-.8 0-1.5.7-1.5 1.5s.7 1.5 1.5 1.5S38 51.8 38 51s-.7-1.5-1.5-1.5z" style="fill:rgb(51, 51, 51);animation-play-state:paused" ></path></g>
<g style="animation-play-state:paused" ><path fill="#333" d="M74.6 45.8c-1.9 0-3.5-1.6-3.5-3.5s1.6-3.5 3.5-3.5 3.5 1.6 3.5 3.5-1.6 3.5-3.5 3.5zm0-5c-.8 0-1.5.7-1.5 1.5s.7 1.5 1.5 1.5 1.5-.7 1.5-1.5-.7-1.5-1.5-1.5z" style="fill:rgb(51, 51, 51);animation-play-state:paused" ></path></g>
<metadata xmlns:d="https://loading.io/stock/" style="animation-play-state:paused" ><d:name style="animation-play-state:paused" >pizza</d:name>
<d:tags style="animation-play-state:paused" >pizza,pie,pancake,food,party</d:tags>
<d:license style="animation-play-state:paused" >by</d:license>
<d:slug style="animation-play-state:paused" >x81aab</d:slug></metadata></g><!-- generated by https://loading.io/ --></svg>